PathFileType	4	(X/Y/Z)	C:/Users/beibeiliu/ov580/test_trc/User1\sequence.31_training_dense_left.trc
DataRate	CameraRate	NumFrames	NumMarkers	Units	OrigDataRate	OrigDataStartFrame	OrigNumFrames
120	120	15	19	mm	120	225	256
Frame#	Time	ThumbCMC			ThumbMCP			ThumbIP			ThumbTip			IndexMCP			IndexPIP			IndexTip			MiddleMCP			MiddlePIP			MiddleTip			RingMCP			RingPIP			RingTip			PinkyMCP			PinkyPIP			PinkyTip			BackHand1			BackHand2			BackHand3	
		X0	Y0	Z0	X1	Y1	Z1	X2	Y2	Z2	X3	Y3	Z3	X4	Y4	Z4	X5	Y5	Z5	X6	Y6	Z6	X7	Y7	Z7	X8	Y8	Z8	X9	Y9	Z9	X10	Y10	Z10	X11	Y11	Z11	X12	Y12	Z12	X13	Y13	Z13	X14	Y14	Z14	X15	Y15	Z15	X16	Y16	Z16	X17	Y17	Z17	X18	Y18	Z18	
224	1.86667	-142.052	16.9885	9.84097	-111.512	12.5608	-3.70143	-87.8944	15.8849	-16.4522	-66.8552	10.9108	-29.8441	-157.014	-6.3341	-68.9631	-150.923	-16.7309	-97.208	-135.322	-27.5564	-118.635	-174.104	-34.3157	-72.6731	-167.456	-46.3798	-102.66	-149.219	-58.1102	-127.096	-175.415	-53.7968	-57.8267	-167.627	-69.6059	-88.633	-150.717	-78.7194	-105.38	-168.635	-82.4941	-34.8743	-155.302	-96.9208	-47.137	-135.241	-107.302	-65.7368	-190.368	-36.9138	-7.93677	-199.93	-26.9374	23.3359	-179.935	0.803771	-2.83646	
225	1.875	-136.016	19.2928	11.8995	-104.999	16.5167	2.48441	-86.9716	11.5672	-11.6464	-60.7072	9.51934	-27.5889	-152.816	-5.77847	-70.3724	-145.64	-10.9002	-97.0622	-138.913	-26.3762	-116.193	-171.012	-27.06	-68.6758	-169.064	-41.5593	-99.5924	-155.913	-53.7652	-125.766	-175.807	-53.0722	-62.3584	-167.787	-61.5054	-89.3894	-156.566	-76.4378	-106.211	-167.358	-77.5267	-37.1916	-156.123	-93.7015	-48.1585	-141.749	-108.85	-66.1356	-188.915	-31.9915	-8.22845	-195.008	-23.4336	25.5015	-174.927	2.63447	-0.674215	
226	1.88333	-131.387	18.2681	12.5787	-102.675	10.1326	3.23632	-77.3759	13.0407	-11.4406	-56.4515	8.16437	-23.9322	-147.872	-3.91783	-66.3162	-144.339	-9.91628	-95.1009	-138.318	-20.4632	-116.774	-168.977	-25.4321	-70.3439	-167.622	-36.4366	-102.232	-158.662	-48.9091	-128.738	-172.908	-47.6714	-62.7195	-169.798	-62.0122	-87.8996	-157.332	-73.8305	-110.562	-168.668	-79.4168	-36.5214	-157.715	-95.1455	-47.4672	-145.479	-104.453	-66.093	-186.981	-33.4809	-10.6411	-192.75	-20.0013	21.9671	-173.109	2.4807	1.76574	
227	1.89167	-130.698	14.7594	15.5984	-100.843	8.97357	5.38174	-77.4472	7.92899	-8.20576	-54.6533	6.27	-19.0141	-145	-3.30473	-64.0737	-142.379	-6.37217	-91.1939	-136.598	-17.8878	-118.332	-165.969	-22.8365	-70.3439	-166.318	-31.5075	-102.211	-161.719	-44.138	-129.108	-174.43	-49.5364	-62.9719	-169.417	-58.701	-90.0943	-159.874	-73.6516	-111.386	-168.608	-74.5005	-34.8702	-160.377	-92.0083	-45.8286	-149.779	-108.189	-63.6126	-184.119	-27.2581	-12.4934	-191.34	-21.2174	22.4261	-168.895	6.7548	-1.5376	
228	1.9	-128.361	15.4757	16.2364	-99.4599	8.0383	9.35576	-75.4746	6.34589	-4.38276	-49.8696	8.95132	-12.7141	-144.008	-5.26343	-66.364	-141.89	-7.95862	-90.7666	-137.016	-15.0809	-118.856	-165.38	-23.874	-70.2484	-166.081	-32.6209	-99.6286	-163.354	-44.6948	-125.33	-173.464	-49.616	-57.4153	-168.45	-57.4577	-88.7991	-161.313	-69.4932	-107.082	-169.194	-76.8667	-32.9155	-158.184	-96.0907	-48.6715	-144.35	-106.435	-65.9149	-183.781	-29.7945	-9.93822	-190.712	-18.7191	21.9659	-166.67	5.8615	1.73012	
229	1.90833	-127.091	13.3123	15.1582	-96.9814	7.05608	10.3455	-73.4389	5.13072	-3.36593	-47.2447	6.50723	-13.6908	-140.589	-1.49138	-64.0773	-140.043	-6.69977	-90.7845	-137.985	-15.9351	-114.766	-162.69	-22.4585	-67.3358	-164.543	-30.7442	-101.248	-164.144	-44.8138	-124.306	-172.517	-48.7492	-61.1416	-169.285	-60.856	-87.4679	-160.954	-74.8088	-110.585	-166.969	-79.0577	-36.419	-159.642	-92.1273	-45.5866	-145.987	-110.033	-63.6746	-180.349	-28.219	-9.29637	-191.192	-20.4988	22.6824	-166.791	2.08781	-1.91111	
230	1.91667	-124.522	14.0822	15.3457	-93.7825	4.72882	5.26953	-70.5195	3.66581	-4.93705	-46.5702	2.87878	-13.8293	-140.42	-3.04953	-63.0611	-139.992	-8.84427	-92.5511	-139.566	-17.9312	-117.3	-165.519	-26.1754	-67.2865	-163.962	-30.8497	-99.1525	-161.088	-44.3063	-129.273	-168.299	-46.0581	-61.724	-169.332	-60.8696	-85.2316	-158.1	-71.0671	-107.765	-167.533	-78.0836	-33.7308	-154.189	-94.9779	-47.9052	-139.839	-110.509	-62.35	-181.161	-27.9678	-12.6701	-185.894	-16.8531	18.9149	-165.562	3.8517	-1.1679	
231	1.925	-123.325	12.2008	11.9343	-89.8323	6.55899	5.82247	-68.4753	1.73208	-6.45314	-45.0747	0.155472	-11.4884	-138.47	-2.57475	-66.4257	-138.44	-8.11843	-91.8065	-139.872	-21.361	-120.367	-161.281	-22.4289	-71.7203	-161.412	-32.3631	-102.285	-159.286	-46.11	-129.836	-168.642	-47.6741	-62.7768	-166.915	-63.2149	-86.261	-154.491	-75.6817	-107.739	-165.066	-74.1126	-34.537	-151.776	-92.3854	-45.6969	-138.023	-107.107	-58.9389	-180.135	-26.0999	-12.2947	-187.514	-16.7571	19.2318	-163.722	4.47195	-1.75869	
232	1.93333	-122.115	12.3551	11.4809	-92.4434	0.614105	3.45422	-68.2319	-1.19055	-6.86989	-47.0218	-6.22543	-12.6202	-139.538	-4.53913	-68.0959	-137.16	-8.62836	-93.3866	-134.887	-20.1818	-117.137	-163.19	-26.1669	-72.4141	-159.869	-33.3001	-102.451	-155.346	-48.2024	-125.695	-169.586	-51.4019	-63.9235	-161.563	-61.5372	-88.4267	-148.088	-78.7005	-107.917	-161.923	-77.0851	-38.1671	-147.844	-94.9867	-45.1327	-126.73	-107.301	-58.7499	-178.653	-26.1525	-9.46323	-186.965	-18.4078	20.06	-163.816	5.40665	0.713572	
233	1.94167	-124.07	11.5492	14.0381	-93.3641	0.141451	4.04024	-68.5294	-3.61284	-7.12994	-44.9118	-13.4502	-22.007	-138.896	-5.68826	-66.517	-138.274	-12.1181	-95.8975	-134.128	-26.6362	-119.207	-160.37	-26.1382	-70.3926	-158.803	-35.6087	-99.8298	-147.668	-55.0756	-129.05	-165.882	-48.1183	-60.7394	-159.927	-66.399	-87.5996	-138.517	-81.5282	-107.044	-161.417	-77.2423	-36.7022	-142.354	-93.9741	-46.4107	-123.352	-105.153	-53.3813	-182.065	-31.2674	-11.4979	-187.886	-19.6388	19.7616	-164.232	2.51813	-5.02871	
234	1.95	-122.944	11.2481	8.77116	-92.9369	-0.787665	3.35825	-69.2562	-6.90541	-12.8651	-51.716	-20.6727	-23.3566	-140.409	-7.11699	-70.4709	-136.96	-16.546	-98.7338	-128.122	-29.6063	-120.045	-160.962	-27.7635	-75.2439	-154.039	-39.6685	-105.218	-139.94	-57.9941	-125.901	-164.652	-53.3932	-66.9396	-153.063	-67.2346	-88.0189	-130.902	-86.2524	-100.713	-158.876	-76.8176	-36.9774	-141.505	-94.5557	-44.8091	-116.763	-103.144	-53.6951	-180.034	-30.2648	-13.8701	-186.939	-18.0171	17.5035	-165.399	3.06967	-4.28065	
235	1.95833	-125.571	12.6882	11.8227	-92.3036	0.399015	-0.311019	-69.9513	-8.27921	-13.406	-54.3885	-25.6804	-28.5426	-142.978	-9.96898	-70.5126	-137.505	-17.1871	-95.8911	-122.605	-34.1354	-120.36	-162.03	-31.5836	-76.307	-150.414	-40.6582	-105.968	-133.518	-61.6534	-123.247	-163.366	-55.786	-65.8152	-147.027	-70.0015	-88.2087	-126.001	-86.1964	-95.2179	-158.162	-80.166	-36.4366	-136.031	-92.306	-44.6427	-113.137	-96.9356	-49.8239	-180.183	-32.4515	-11.8272	-188.966	-22.3111	20.5648	-165.146	5.74221	-7.26324	
236	1.96667	-123.522	13.5277	10.7158	-91.3887	-0.484181	-0.532336	-70.7464	-11.7532	-17.665	-55.5422	-29.6877	-31.1232	-141.065	-7.49381	-73.6763	-136.433	-19.8665	-97.4393	-120.416	-39.1933	-118.953	-160.197	-29.0211	-72.2368	-149.517	-44.7314	-105.284	-128.6	-61.8237	-119.743	-162.469	-53.0408	-63.3434	-144.149	-73.905	-87.7443	-119.575	-87.679	-91.3997	-158.732	-79.5331	-35.9289	-132.796	-90.4991	-45.6518	-105.719	-90.6406	-47.351	-179.901	-29.0093	-11.6601	-190.202	-22.0699	18.023	-166.805	3.06943	-5.34643	
237	1.975	-127.657	8.60115	6.61075	-93.1368	-3.9751	-6.07183	-77.2918	-17.0664	-20.1746	-59.331	-34.4435	-34.1105	-142.576	-6.92874	-74.0736	-135.616	-16.1357	-97.0375	-119.587	-37.5032	-113.878	-160.121	-26.9522	-76.2787	-147.839	-40.3313	-104.978	-123.496	-63.8235	-117.194	-163.151	-53.1884	-64.5799	-145.347	-68.6864	-87.1351	-117.968	-81.4743	-90.0103	-154.337	-74.529	-40.3166	-136.004	-87.7199	-45.578	-103.049	-88.5515	-43.2532	-181.019	-32.5592	-12.3511	-189.319	-20.5047	15.8875	-169.873	2.40473	-4.12256	
238	1.98333	-126.128	12.471	8.16049	-95.2902	-3.53691	-3.8258	-75.201	-16.3839	-23.6391	-64.9491	-36.5756	-38.0647	-143.31	-3.74169	-71.6355	-133.916	-17.433	-101.011	-114.02	-33.8318	-114.243	-161.858	-27.4596	-76.4822	-149.277	-44.6068	-104.069	-119.331	-61.5155	-114.552	-161.509	-51.2633	-67.5099	-144.548	-66.1867	-87.058	-116.326	-80.2917	-87.528	-154.895	-76.7102	-40.2593	-130.762	-84.7222	-45.8395	-103.584	-85.7308	-42.1857	-180.235	-28.8542	-11.7478	-191.332	-22.6448	15.4641	-167.754	4.85184	-1.17201	
